<svg width="100" height="100" viewBox="0 0 100 100" fill="none" xmlns="http://www.w3.org/2000/svg">
<g clip-path="url(#clip0_54_20)">
<rect width="100" height="100" fill="#FF5722"/>
<path d="M77.504 92L71.264 85.952C65.056 90.688 57.632 93.056 48.992 93.056C43.808 93.056 39.296 92.224 35.456 90.56C31.616 88.832 28.64 86.432 26.528 83.36C24.48 80.224 23.456 76.576 23.456 72.416C23.456 68.192 24.576 64.384 26.816 60.992C29.12 57.536 32.544 54.72 37.088 52.544C35.424 50.496 34.24 48.544 33.536 46.688C32.832 44.768 32.48 42.688 32.48 40.448C32.48 37.248 33.312 34.336 34.976 31.712C36.64 29.088 39.04 27.04 42.176 25.568C45.376 24.032 49.152 23.264 53.504 23.264C57.92 23.264 61.664 24.064 64.736 25.664C67.808 27.264 70.112 29.408 71.648 32.096C73.184 34.784 73.888 37.728 73.76 40.928H58.304C58.368 39.2 57.92 37.888 56.96 36.992C56.064 36.032 54.848 35.552 53.312 35.552C51.776 35.552 50.496 36 49.472 36.896C48.448 37.792 47.936 38.944 47.936 40.352C47.936 41.696 48.352 43.104 49.184 44.576C50.08 46.048 51.456 47.744 53.312 49.664L69.728 65.696C69.856 65.376 70.016 64.992 70.208 64.544C70.464 64.096 70.72 63.584 70.976 63.008L74.528 56.96H90.944L86.336 65.312C84.608 69.088 82.624 72.672 80.384 76.064L96.608 92H77.504ZM49.76 79.808C54.048 79.808 57.856 78.592 61.184 76.16L46.208 61.664C41.6 64.032 39.296 67.232 39.296 71.264C39.296 73.696 40.224 75.744 42.08 77.408C44 79.008 46.56 79.808 49.76 79.808Z" fill="#FF916F"/>
<path d="M53.852 19.728V45H47.696V29.844L42.044 45H37.076L31.388 29.808V45H25.232V19.728H32.504L39.596 37.224L46.616 19.728H53.852ZM64.4349 24.66V29.772H72.6789V34.524H64.4349V40.068H73.7589V45H58.2789V19.728H73.7589V24.66H64.4349Z" fill="white"/>
<path d="M37.376 78.252C35.528 78.252 33.872 77.952 32.408 77.352C30.944 76.752 29.768 75.864 28.88 74.688C28.016 73.512 27.56 72.096 27.512 70.44H34.064C34.16 71.376 34.484 72.096 35.036 72.6C35.588 73.08 36.308 73.32 37.196 73.32C38.108 73.32 38.828 73.116 39.356 72.708C39.884 72.276 40.148 71.688 40.148 70.944C40.148 70.32 39.932 69.804 39.5 69.396C39.092 68.988 38.576 68.652 37.952 68.388C37.352 68.124 36.488 67.824 35.36 67.488C33.728 66.984 32.396 66.48 31.364 65.976C30.332 65.472 29.444 64.728 28.7 63.744C27.956 62.76 27.584 61.476 27.584 59.892C27.584 57.54 28.436 55.704 30.14 54.384C31.844 53.04 34.064 52.368 36.8 52.368C39.584 52.368 41.828 53.04 43.532 54.384C45.236 55.704 46.148 57.552 46.268 59.928H39.608C39.56 59.112 39.26 58.476 38.708 58.02C38.156 57.54 37.448 57.3 36.584 57.3C35.84 57.3 35.24 57.504 34.784 57.912C34.328 58.296 34.1 58.86 34.1 59.604C34.1 60.42 34.484 61.056 35.252 61.512C36.02 61.968 37.22 62.46 38.852 62.988C40.484 63.54 41.804 64.068 42.812 64.572C43.844 65.076 44.732 65.808 45.476 66.768C46.22 67.728 46.592 68.964 46.592 70.476C46.592 71.916 46.22 73.224 45.476 74.4C44.756 75.576 43.7 76.512 42.308 77.208C40.916 77.904 39.272 78.252 37.376 78.252ZM72.0524 52.728L63.3044 69.648V78H57.1484V69.648L48.4004 52.728H55.3844L60.2804 63.312L65.1404 52.728H72.0524Z" fill="white"/>
</g>
<defs>
<clipPath id="clip0_54_20">
<rect width="100" height="100" fill="white"/>
</clipPath>
</defs>
</svg>
